<svg width="32" height="32" viewBox="0 0 32 32" fill="none" xmlns="http://www.w3.org/2000/svg">
<mask id="mask0_1_142" style="mask-type:alpha" maskUnits="userSpaceOnUse" x="0" y="0" width="32" height="32">
<rect width="32" height="32" fill="#D9D9D9"/>
</mask>
<g mask="url(#mask0_1_142)">
<path d="M13.9333 16.3513L15.846 18.264C16.0393 18.4742 16.2864 18.5793 16.5873 18.5793C16.888 18.5793 17.1435 18.4742 17.354 18.264L22 13.6437V16.0333C22 16.206 22.0636 16.3547 22.191 16.4793C22.3183 16.6042 22.4769 16.6667 22.6666 16.6667C22.8393 16.6667 22.9935 16.603 23.1293 16.4757C23.2653 16.3483 23.3333 16.1898 23.3333 16V12.4103C23.3333 12.1179 23.2269 11.8653 23.014 11.6527C22.8013 11.4398 22.5488 11.3333 22.2563 11.3333H18.6333C18.4606 11.3333 18.312 11.4013 18.1873 11.5373C18.0624 11.6731 18 11.8273 18 12C18 12.1898 18.0636 12.3483 18.191 12.4757C18.3183 12.603 18.4769 12.6667 18.6666 12.6667H21.023L16.6 17.1487L14.6873 15.236C14.4769 15.0205 14.2213 14.9127 13.9206 14.9127C13.6198 14.9127 13.3726 15.0205 13.1793 15.236L9.39498 18.995C9.26498 19.1368 9.19998 19.2982 9.19998 19.4793C9.19998 19.6607 9.26498 19.8137 9.39498 19.9383C9.53676 20.0855 9.6982 20.159 9.87931 20.159C10.0606 20.159 10.2136 20.0855 10.3383 19.9383L13.9333 16.3513ZM7.48731 26.6667C6.87354 26.6667 6.36109 26.4611 5.94998 26.05C5.53887 25.6389 5.33331 25.1265 5.33331 24.5127V7.48734C5.33331 6.87357 5.53887 6.36112 5.94998 5.95001C6.36109 5.5389 6.87354 5.33334 7.48731 5.33334H24.5126C25.1264 5.33334 25.6389 5.5389 26.05 5.95001C26.4611 6.36112 26.6666 6.87357 26.6666 7.48734V24.5127C26.6666 25.1265 26.4611 25.6389 26.05 26.05C25.6389 26.4611 25.1264 26.6667 24.5126 26.6667H7.48731ZM7.48731 25.3333H24.5126C24.718 25.3333 24.9061 25.2479 25.077 25.077C25.2479 24.9061 25.3333 24.718 25.3333 24.5127V7.48734C25.3333 7.28201 25.2479 7.0939 25.077 6.92301C24.9061 6.75212 24.718 6.66668 24.5126 6.66668H7.48731C7.28198 6.66668 7.09387 6.75212 6.92298 6.92301C6.75209 7.0939 6.66665 7.28201 6.66665 7.48734V24.5127C6.66665 24.718 6.75209 24.9061 6.92298 25.077C7.09387 25.2479 7.28198 25.3333 7.48731 25.3333Z" fill="white"/>
</g>
</svg>
