<svg width="32" height="32" viewBox="0 0 32 32" fill="none" xmlns="http://www.w3.org/2000/svg">
<mask id="mask0_1_151" style="mask-type:alpha" maskUnits="userSpaceOnUse" x="0" y="0" width="32" height="32">
<rect width="32" height="32" fill="#D9D9D9"/>
</mask>
<g mask="url(#mask0_1_151)">
<path d="M13.9336 16.2729L15.8836 18.2229C16.0683 18.4331 16.3029 18.5382 16.5876 18.5382C16.872 18.5382 17.1194 18.4331 17.3296 18.2229L22.0579 13.5206V16.0332C22.0579 16.1897 22.1154 16.3247 22.2303 16.4382C22.3454 16.552 22.4909 16.6089 22.6669 16.6089C22.8234 16.6089 22.9661 16.5515 23.0952 16.4366C23.2241 16.3215 23.2886 16.1759 23.2886 15.9999V12.4102C23.2886 12.134 23.1856 11.893 22.9796 11.6872C22.7738 11.4812 22.5328 11.3782 22.2566 11.3782H18.6336C18.4771 11.3782 18.3421 11.4427 18.2286 11.5716C18.1148 11.7007 18.0579 11.8435 18.0579 11.9999C18.0579 12.1759 18.1154 12.3215 18.2303 12.4366C18.3454 12.5515 18.4909 12.6089 18.6669 12.6089H21.1463L16.6003 17.2139L14.6629 15.2769C14.4527 15.0727 14.2054 14.9706 13.9209 14.9706C13.6362 14.9706 13.4016 15.0727 13.2169 15.2769L9.43225 19.0192C9.31603 19.161 9.25792 19.3144 9.25792 19.4792C9.25792 19.6444 9.31603 19.785 9.43225 19.9012C9.56558 20.037 9.71469 20.1049 9.87958 20.1049C10.0447 20.1049 10.1896 20.037 10.3143 19.9012L13.9336 16.2729ZM7.56958 26.4819C6.99181 26.4819 6.50547 26.2845 6.11058 25.8896C5.71569 25.4947 5.51825 25.0084 5.51825 24.4306V7.56925C5.51825 6.99147 5.71569 6.50514 6.11058 6.11025C6.50547 5.71536 6.99181 5.51791 7.56958 5.51791H24.4309C25.0087 5.51791 25.495 5.71536 25.8899 6.11025C26.2848 6.50514 26.4823 6.99147 26.4823 7.56925V24.4306C26.4823 25.0084 26.2848 25.4947 25.8899 25.8896C25.495 26.2845 25.0087 26.4819 24.4309 26.4819H7.56958Z" fill="white"/>
</g>
</svg>
