<svg width="32" height="32" viewBox="0 0 32 32" fill="none" xmlns="http://www.w3.org/2000/svg">
<mask id="mask0_1_145" style="mask-type:alpha" maskUnits="userSpaceOnUse" x="0" y="0" width="32" height="32">
<rect width="32" height="32" fill="#D9D9D9"/>
</mask>
<g mask="url(#mask0_1_145)">
<path d="M6.85156 25.2512V13.7639C6.85156 13.4366 6.92167 13.13 7.0619 12.8442C7.2019 12.5582 7.40523 12.3178 7.6719 12.1229L14.7696 6.74856C15.1316 6.475 15.5405 6.33823 15.9962 6.33823C16.4518 6.33823 16.8633 6.475 17.2309 6.74856L24.3286 12.1229C24.5952 12.3178 24.7986 12.5582 24.9386 12.8442C25.0788 13.13 25.1489 13.4366 25.1489 13.7639V25.2512C25.1489 25.581 25.0262 25.8686 24.7809 26.1139C24.5356 26.3592 24.248 26.4819 23.9182 26.4819H19.4876C19.1987 26.4819 18.9566 26.3821 18.7612 26.1826C18.5659 25.983 18.4682 25.7388 18.4682 25.4499V19.0706C18.4682 18.7901 18.3685 18.5501 18.1689 18.3506C17.9693 18.151 17.7251 18.0512 17.4362 18.0512H14.5642C14.2753 18.0512 14.0332 18.151 13.8379 18.3506C13.6428 18.5501 13.5452 18.7901 13.5452 19.0706V25.4499C13.5452 25.7388 13.4455 25.983 13.2459 26.1826C13.0461 26.3821 12.8018 26.4819 12.5129 26.4819H8.08223C7.75245 26.4819 7.4649 26.3592 7.21956 26.1139C6.97423 25.8686 6.85156 25.581 6.85156 25.2512Z" fill="white"/>
</g>
</svg>
