<svg width="32" height="32" viewBox="0 0 32 32" fill="none" xmlns="http://www.w3.org/2000/svg">
<mask id="mask0_1_148" style="mask-type:alpha" maskUnits="userSpaceOnUse" x="0" y="0" width="32" height="32">
<rect width="32" height="32" fill="#D9D9D9"/>
</mask>
<g mask="url(#mask0_1_148)">
<path d="M8.08223 25.2512H12.9232V18.4616C12.9232 18.1727 13.023 17.9284 13.2226 17.7289C13.4221 17.5291 13.6663 17.4292 13.9552 17.4292H18.0579C18.337 17.4292 18.5767 17.5291 18.7769 17.7289C18.9771 17.9284 19.0772 18.1727 19.0772 18.4616V25.2512H23.9182V13.7596C23.9182 13.6229 23.8883 13.499 23.8286 13.3879C23.7686 13.2768 23.6873 13.1784 23.5849 13.0929L16.4876 7.74856C16.3507 7.629 16.1882 7.56923 16.0002 7.56923C15.8122 7.56923 15.6498 7.629 15.5129 7.74856L8.41556 13.0929C8.31312 13.1784 8.2319 13.2768 8.1719 13.3879C8.11212 13.499 8.08223 13.6229 8.08223 13.7596V25.2512ZM6.85156 25.2512V13.7639C6.85156 13.435 6.92178 13.1273 7.06223 12.8409C7.20267 12.5544 7.4059 12.3151 7.6719 12.1229L14.7696 6.74856C15.1349 6.475 15.5446 6.33823 15.9986 6.33823C16.4526 6.33823 16.8633 6.475 17.2309 6.74856L24.3286 12.1229C24.5946 12.3151 24.7978 12.5544 24.9382 12.8409C25.0787 13.1273 25.1489 13.435 25.1489 13.7639V25.2512C25.1489 25.5803 25.026 25.8677 24.7802 26.1132C24.5347 26.359 24.2473 26.4819 23.9182 26.4819H18.8786C18.5897 26.4819 18.3455 26.3821 18.1459 26.1826C17.9461 25.983 17.8462 25.7388 17.8462 25.4499V18.6602H14.1542V25.4499C14.1542 25.7388 14.0542 25.983 13.8542 26.1826C13.6542 26.3821 13.4149 26.4819 13.1362 26.4819H8.07656C7.7519 26.4819 7.46656 26.359 7.22056 26.1132C6.97456 25.8677 6.85156 25.5803 6.85156 25.2512Z" fill="white"/>
</g>
</svg>
